<svg width="79" height="74" viewBox="0 0 79 74" fill="none" xmlns="http://www.w3.org/2000/svg">
<g id="cnbc africa">
<path id="Vector" d="M76.2385 33.1068C74.2426 29.187 69.4445 27.629 65.5247 29.6238C65.2157 29.7806 64.9229 29.9584 64.6418 30.1466L43.6196 44.6861H69.1436C70.3576 44.6861 71.6007 44.4096 72.7567 43.8205C76.6753 41.82 78.2356 37.0265 76.2385 33.1068Z" fill="white"/>
<path id="Vector_2" d="M55.8227 16.5921L44.8022 41.9418L67.5171 26.2266C68.0062 25.8874 68.4651 25.4831 68.8821 25.0254C71.7924 21.7933 71.5298 16.8163 68.2989 13.9084C65.0704 10.9959 60.0911 11.2596 57.182 14.4905C56.6046 15.1341 56.1538 15.8439 55.8227 16.5921Z" fill="white"/>
<path id="Vector_3" d="M55.7695 12.855C56.0704 12.1463 56.2725 11.3831 56.3562 10.578C56.8174 6.20276 53.6399 2.28296 49.2659 1.8229C44.8907 1.36401 40.9709 4.53911 40.512 8.91431C40.4667 9.35114 40.4539 9.7868 40.4806 10.2167H40.4725C40.4725 10.3491 40.5306 10.4107 40.6793 10.4107C40.8257 10.4107 42.5939 10.4107 42.7949 10.4107C43.227 10.4107 43.873 10.5385 43.873 10.8789C43.873 11.1391 42.724 11.3831 42.0153 12.065C41.2683 12.7818 40.9291 14.0633 41.108 15.2959V15.2889L44.6467 39.1237L55.7695 12.855Z" fill="white"/>
<path id="Vector_4" d="M10.2585 44.6861H35.7789L14.7545 30.1466C14.4768 29.9584 14.1817 29.7806 13.875 29.6238C9.95291 27.629 5.15482 29.187 3.16123 33.1068C1.163 37.0265 2.72325 41.82 6.64188 43.8205C7.799 44.4096 9.04325 44.6861 10.2585 44.6861Z" fill="white"/>
<path id="Vector_5" d="M23.5755 16.5923L34.5949 41.9408L11.8812 26.2256C11.3921 25.8864 10.9332 25.4821 10.5185 25.0244C7.60824 21.7924 7.86964 16.8154 11.0993 13.9075C14.3314 10.9949 19.306 11.2586 22.2174 14.4895C22.7948 15.1343 23.2491 15.8441 23.5755 16.5923Z" fill="white"/>
<path id="Vector_6" d="M38.9182 10.2167L34.7497 39.1237L23.6282 12.855C23.3284 12.1463 23.1286 11.3831 23.0438 10.578C22.5837 6.20276 25.76 2.28296 30.1329 1.8229C34.5081 1.36401 38.4291 4.53911 38.8856 8.91431C38.9333 9.35114 38.9426 9.7868 38.9182 10.2167Z" fill="white"/>
<path id="Vector_7" d="M15.3734 51.8787C15.0969 50.5392 13.9979 50.1872 12.7722 50.0722C8.80596 49.7051 8.10077 52.6664 8.10077 53.9188C8.10077 56.0564 8.72696 57.8107 12.6224 57.8107C13.338 57.8107 15.3211 57.0893 15.3211 55.8903H20.9208C20.6978 59.4465 14.7066 60.3004 12.0949 60.3004C6.68226 60.3004 2.0503 59.2943 2.27336 53.9699C2.43717 50.1663 6.03167 47.4966 13.1858 47.6615C17.1707 47.758 20.9998 48.9952 21.0161 51.8799H15.3734" fill="white"/>
<path id="Vector_8" d="M71.4603 51.8787C71.185 50.5392 70.0871 50.1872 68.8603 50.0722C64.8952 49.7051 64.1912 52.6664 64.1912 53.9188C64.1912 56.0564 64.815 57.8107 68.7104 57.8107C69.4273 57.8107 71.4104 57.0893 71.4104 55.8903H77.0078C76.7859 59.4465 70.7958 60.3004 68.1842 60.3004C62.7727 60.3004 58.1396 59.2943 58.3638 53.9699C58.5229 50.1663 62.1174 47.4966 69.2704 47.6615C73.2576 47.758 77.0868 48.9952 77.1065 51.8799H71.4603" fill="white"/>
<path id="Vector_9" d="M22.0156 47.917H29.2848L35.4886 56.6082H35.5386V47.917H40.1972V59.9819H33.2336L26.7277 51.2942H26.6778V59.9819H22.0156V47.917Z" fill="white"/>
<path id="Vector_10" d="M46.7496 57.4528H48.2123C50.9297 57.4528 51.9288 57.1681 51.9288 56.2341C51.9288 55.2291 50.666 54.8922 48.6387 54.8922H46.7496V57.4528ZM46.7496 52.6047H48.2123C50.465 52.6047 51.6639 52.4281 51.6639 51.4941C51.6639 50.4891 50.666 50.1569 48.6387 50.1569H46.7496V52.6047ZM41.6367 47.917H50.4638C54.7112 47.917 57.2055 49.102 57.2055 50.8934C57.2055 51.946 56.1599 53.2518 53.8318 53.6352V53.6712C56.6374 53.8373 57.6726 55.609 57.6726 56.6709C57.6726 58.7981 55.2375 59.9819 50.4894 59.9819H41.6367V47.917Z" fill="white"/>
<path id="Vector_11" d="M76.2385 33.1068C74.2426 29.187 69.4445 27.629 65.5247 29.6238C65.2157 29.7806 64.9229 29.9584 64.6418 30.1466L43.6196 44.6861H69.1436C70.3576 44.6861 71.6007 44.4096 72.7567 43.8205C76.6753 41.82 78.2356 37.0265 76.2385 33.1068Z" fill="white"/>
<path id="Vector_12" d="M55.8227 16.5921L44.8022 41.9418L67.5171 26.2266C68.0062 25.8874 68.4651 25.4831 68.8821 25.0254C71.7924 21.7933 71.5298 16.8163 68.2989 13.9084C65.0704 10.9959 60.0911 11.2596 57.182 14.4905C56.6046 15.1341 56.1538 15.8439 55.8227 16.5921Z" fill="white"/>
<path id="Vector_13" d="M55.7695 12.855C56.0704 12.1463 56.2725 11.3831 56.3562 10.578C56.8174 6.20276 53.6399 2.28296 49.2659 1.8229C44.8907 1.36401 40.9709 4.53911 40.512 8.91431C40.4667 9.35114 40.4539 9.7868 40.4806 10.2167H40.4725C40.4725 10.3491 40.5306 10.4107 40.6793 10.4107C40.8257 10.4107 42.5939 10.4107 42.7949 10.4107C43.227 10.4107 43.873 10.5385 43.873 10.8789C43.873 11.1391 42.724 11.3831 42.0153 12.065C41.2683 12.7818 40.9291 14.0633 41.108 15.2959V15.2889L44.6467 39.1237L55.7695 12.855Z" fill="white"/>
<path id="Vector_14" d="M10.2585 44.6861H35.7789L14.7545 30.1466C14.4768 29.9584 14.1817 29.7806 13.875 29.6238C9.95291 27.629 5.15482 29.187 3.16123 33.1068C1.163 37.0265 2.72325 41.82 6.64188 43.8205C7.799 44.4096 9.04325 44.6861 10.2585 44.6861Z" fill="white"/>
<path id="Vector_15" d="M23.5755 16.5923L34.5949 41.9408L11.8812 26.2256C11.3921 25.8864 10.9332 25.4821 10.5185 25.0244C7.60824 21.7924 7.86964 16.8154 11.0993 13.9075C14.3314 10.9949 19.306 11.2586 22.2174 14.4895C22.7948 15.1343 23.2491 15.8441 23.5755 16.5923Z" fill="white"/>
<path id="Vector_16" d="M38.9182 10.2167L34.7497 39.1237L23.6282 12.855C23.3284 12.1463 23.1286 11.3831 23.0438 10.578C22.5837 6.20276 25.76 2.28296 30.1329 1.8229C34.5081 1.36401 38.4291 4.53911 38.8856 8.91431C38.9333 9.35114 38.9426 9.7868 38.9182 10.2167Z" fill="white"/>
</g>
</svg>
