<svg width="140" height="37" viewBox="0 0 140 37" fill="none" xmlns="http://www.w3.org/2000/svg">
<g id="Forbes_logo" clip-path="url(#clip0_2749_29333)">
<path id="Vector" d="M13.4782 3.67832H16.5451C18.4128 3.40317 20.3202 3.64509 22.0601 4.37778C24.2429 5.69104 25.8261 7.80525 26.4721 10.2694C26.9294 11.5607 26.9294 11.5607 28.0324 11.1034H28.8933V0.880473H0.0270477V2.68293H1.21075C1.72514 2.67937 2.23379 2.7911 2.69933 3.0099C3.16488 3.22871 3.57548 3.54903 3.90099 3.94734C5.00399 5.7229 5.1923 7.71368 5.1923 18.0711C5.1923 29.0742 4.95018 31.7644 3.90099 33.1364C3.64197 33.4891 3.30663 33.7788 2.91998 33.9838C2.53334 34.1887 2.1054 34.3037 1.66809 34.3201C0.0270478 34.6161 0.0270477 34.5892 0.0270477 35.3155C-0.0637034 35.5584 -0.0637034 35.8259 0.0270477 36.0688H18.24C18.3605 35.8312 18.4233 35.5685 18.4233 35.3021C18.4233 35.0356 18.3605 34.773 18.24 34.5354C17.7988 34.4126 17.3492 34.3227 16.8948 34.2663C16.4033 34.2079 15.9174 34.1089 15.4421 33.9704C14.7615 33.4735 14.2224 32.8077 13.8779 32.0386C13.5335 31.2696 13.3957 30.4239 13.4782 29.5853C13.2092 27.8098 13.0747 24.5546 13.0747 21.8643V19.739H14.1508C15.4915 19.698 16.8314 19.8429 18.1323 20.1695C18.7556 20.5546 19.2861 21.0726 19.6861 21.6865C20.086 22.3003 20.3455 22.9949 20.446 23.7206L20.6881 24.5546H22.3291V12.6368H20.8226L20.5805 13.7936C20.4786 14.5358 20.204 15.2437 19.7789 15.8604C19.3537 16.4772 18.7897 16.9856 18.1323 17.3447C17.4957 17.5342 16.825 17.5801 16.1685 17.4792H13.0747V14.5738C13.0747 11.5607 13.2361 5.21176 13.3437 4.21637L13.4782 3.67832ZM139.381 25.0119C138.11 22.9652 136.126 21.4609 133.813 20.7882C132.039 20.2338 130.399 19.3178 128.997 18.098C128.682 17.7928 128.446 17.4151 128.31 16.9978C128.174 16.5804 128.142 16.1361 128.217 15.7037C128.219 14.8554 128.558 14.0427 129.158 13.4439C129.566 13.0174 130.081 12.7095 130.65 12.5531C131.218 12.3968 131.819 12.3978 132.387 12.5561C133.563 12.8913 134.626 13.5383 135.465 14.4287C136.303 15.3191 136.885 16.4196 137.148 17.6138C137.579 18.8244 137.633 18.8244 138.413 18.5015L138.897 18.3132V11.6145L138.547 11.4531C135.899 10.5229 133.089 10.1385 130.288 10.3232C127.876 10.3843 125.574 11.3437 123.832 13.0134C123.042 13.753 122.423 14.6562 122.019 15.66C121.614 16.6637 121.434 17.7437 121.491 18.8244C121.506 20.4765 122.162 22.0583 123.321 23.2364C124.601 24.4954 126.172 25.4194 127.894 25.9266C132.064 27.5676 133.275 28.6168 133.275 30.5269C133.292 31.3324 133.036 32.12 132.547 32.7604C132.058 33.4008 131.366 33.856 130.584 34.0511C129.645 34.2575 128.672 34.2575 127.733 34.0511C126.503 33.5738 125.405 32.8097 124.53 31.8223C123.655 30.835 123.028 29.653 122.702 28.3747L122.352 27.5138H121.868C121.637 27.531 121.409 27.5855 121.195 27.6752H120.926V35.3155H121.384C123.201 35.9201 125.076 36.3348 126.979 36.553H129.67C130.836 36.6386 132.009 36.5296 133.14 36.2302C134.576 35.9653 135.917 35.3292 137.031 34.3853C138.145 33.4415 138.992 32.2225 139.489 30.8497C139.81 30.083 139.975 29.2598 139.973 28.4285C140.079 27.2574 139.875 26.0791 139.381 25.0119ZM114.039 11.1034C112.427 10.4265 110.69 10.0982 108.942 10.1399C107.194 10.1817 105.475 10.5925 103.897 11.3455C102.414 12.071 101.099 13.0995 100.038 14.3645C98.977 15.6295 98.1929 17.103 97.7365 18.6898C97.1546 20.4209 96.9081 22.247 97.0101 24.0703C96.9909 25.0624 97.072 26.0539 97.2522 27.0296C97.6867 29.4288 98.8449 31.6375 100.571 33.3592C102.298 35.0808 104.51 36.2329 106.91 36.6606C108.473 36.8576 110.055 36.8576 111.618 36.6606C113.24 36.3747 114.793 35.7812 116.192 34.912C117.349 34.2632 118.328 33.3392 119.043 32.2217C118.997 32.0464 118.916 31.8821 118.805 31.7388C118.695 31.5955 118.556 31.4761 118.398 31.3878C118.09 31.499 117.801 31.6529 117.537 31.8451C116.199 32.727 114.618 33.169 113.017 33.1095C111.954 33.1814 110.888 33.0159 109.897 32.625C108.906 32.2342 108.015 31.6278 107.287 30.8497C106.724 30.3268 106.259 29.7072 105.915 29.0204C105.079 27.3479 104.628 25.5094 104.597 23.6399V22.5907H119.501V22.0526C119.533 21.5151 119.533 20.976 119.501 20.4385C119.495 18.5389 118.987 16.6746 118.028 15.035C117.069 13.3954 115.693 12.0389 114.039 11.1034ZM106.534 20.4116H104.65V18.8244C105.269 14.7621 106.803 12.3409 108.686 12.3409C110.569 12.3409 111.376 14.7352 111.726 19.1203V20.3578H110.112L106.534 20.4116ZM67.8479 10.2156C66.9184 10.1795 65.9943 10.3736 65.1577 10.7806C63.3395 11.6636 61.8708 13.1322 60.9878 14.9504L60.6381 15.5961V10.2156H60.5036C60.1808 10.2156 50.2269 12.2064 49.9041 12.3409C49.5812 12.4754 49.6888 12.5023 49.6888 12.9865C49.6888 13.4708 49.6888 13.5515 49.9041 13.5784L50.9533 13.7936C51.2471 13.8008 51.5355 13.8748 51.7965 14.01C52.0575 14.1452 52.2843 14.338 52.4598 14.5738C53.1323 15.4616 53.2669 17.0219 53.2669 23.6668C53.3997 26.6582 53.2737 29.6556 52.8902 32.6253C52.7999 33.0731 52.5729 33.4818 52.2404 33.795C51.9079 34.1082 51.4863 34.3105 51.034 34.3739L50.1193 34.5623H49.7696V35.3155C49.672 35.5664 49.672 35.8448 49.7696 36.0957H64.808V35.3155C64.8602 35.0581 64.8602 34.7928 64.808 34.5354C63.9025 34.5001 63.0021 34.383 62.1177 34.1856C61.6361 33.9337 61.2421 33.5418 60.9876 33.0616C60.7331 32.5814 60.63 32.0353 60.6919 31.4954C60.4767 29.935 60.3691 25.3616 60.4229 21.8643C60.4767 18.367 60.4229 18.1518 60.7188 17.9097C61.619 17.2195 62.733 16.8672 63.8664 16.9143C64.9347 16.9376 65.9837 17.2044 66.9333 17.6945C67.2625 17.8773 67.6156 18.0131 67.9825 18.098C67.9825 18.098 70.6727 11.5876 70.6727 11.2917C70.3284 10.8916 69.8898 10.5837 69.3966 10.3958C68.9034 10.208 68.3711 10.146 67.8479 10.2156ZM49.7157 21.5146C49.6218 19.5922 49.0699 17.72 48.1059 16.0541C47.1419 14.3882 45.7938 12.9767 44.1739 11.9374C42.2487 10.8988 40.1069 10.3261 37.9203 10.2654C35.7337 10.2047 33.5634 10.6575 31.5835 11.5876C28.7843 13.0637 26.6708 15.5729 25.6919 18.5822C24.6808 21.9515 24.6808 25.5435 25.6919 28.9128C26.222 30.7541 27.2127 32.43 28.5705 33.7821C30.2615 35.4322 32.4421 36.4894 34.7849 36.7952C36.2888 36.9209 37.8006 36.9209 39.3045 36.7952C39.8579 36.7109 40.4059 36.5942 40.9456 36.4454C43.1353 35.8329 45.1054 34.6094 46.6251 32.9181C48.1449 31.2268 49.1516 29.1376 49.5274 26.8951C49.796 25.1147 49.8592 23.3094 49.7157 21.5146ZM38.5244 34.9658C35.8341 35.7729 33.8164 33.1633 33.1439 27.6752C32.8969 24.802 32.8969 21.9128 33.1439 19.0396C33.6819 14.6276 35.0539 12.3947 37.1792 12.3947C37.608 12.3681 38.0369 12.4446 38.4301 12.6178C38.8232 12.791 39.1692 13.0558 39.439 13.3901C41.2415 15.1925 42.1293 18.7706 42.1293 24.151C42.3531 27.1961 41.8745 30.2518 40.7304 33.0826C40.2251 33.9082 39.4435 34.5278 38.5244 34.8313V34.9658ZM86.9486 10.7536C86.1895 10.656 85.421 10.656 84.6619 10.7536C83.2048 10.7524 81.7644 11.0643 80.4383 11.6683L79.6043 12.0181V6.18024C79.75 4.21009 79.75 2.23187 79.6043 0.261719C79.2815 0.261719 69.0048 2.22559 68.8433 2.3063C68.764 2.50492 68.764 2.72643 68.8433 2.92505C68.8433 3.49 68.8433 3.4631 70.0539 3.73213C70.3938 3.80835 70.7203 3.93532 71.0224 4.10876C71.5476 4.60258 71.8971 5.25437 72.0178 5.96502C72.3241 8.01236 72.4233 10.0854 72.3137 12.1526V35.7729L73.0401 35.9343C74.1162 36.1764 77.1562 36.6875 78.1516 36.7952C80.1392 36.9532 82.1363 36.9532 84.1239 36.7952C86.3301 36.5698 88.4329 35.7467 90.2059 34.4146C91.9789 33.0825 93.3548 31.2918 94.1854 29.2356C94.6805 27.9158 95.0235 26.5439 95.2077 25.1464C95.3678 23.2535 95.3046 21.3482 95.0194 19.47C94.7307 17.3647 93.8015 15.3991 92.3578 13.8398C90.914 12.2806 89.0256 11.2031 86.9486 10.7536ZM79.9002 34.5084C79.9002 34.1587 79.6312 22.3755 79.685 17.6676V13.9819L80.4652 13.7936C80.9916 13.7182 81.526 13.7182 82.0524 13.7936C82.6346 13.7344 83.2201 13.8666 83.7204 14.1702C84.725 14.8636 85.5593 15.7759 86.1604 16.8383C86.7615 17.9008 87.1138 19.0857 87.1908 20.304C87.3867 22.263 87.3867 24.2366 87.1908 26.1956C87.0297 29.0428 85.9327 31.7571 84.0701 33.9166C83.5414 34.4187 82.8775 34.7554 82.16 34.8851C81.6171 34.9795 81.0619 34.9795 80.519 34.8851C80.0078 34.8851 80.0078 34.7237 80.0078 34.5084H79.9002Z" fill="white"/>
</g>
<defs>
<clipPath id="clip0_2749_29333">
<rect width="140" height="36.6679" fill="white" transform="translate(0 0.261719)"/>
</clipPath>
</defs>
</svg>
