<svg width="200" height="37" viewBox="0 0 200 37" fill="none" xmlns="http://www.w3.org/2000/svg">
<g id="Group">
<path id="Vector" d="M0 0.131836H14.6625C17.4554 0.131836 19.55 0.830052 21.1016 1.99374C22.8084 3.39018 23.7393 5.40724 23.7393 7.88979C23.7393 10.7602 22.5756 12.5446 20.2483 13.6307V13.7858C23.3514 14.7944 25.1358 17.5872 25.1358 20.9231C25.1358 24.1039 23.8945 26.5865 21.8774 28.138C20.1707 29.3793 17.9984 29.9224 15.0504 29.9224H0V0.131836ZM13.1885 11.7688C14.7401 11.7688 15.9038 10.9154 15.9038 9.13106C15.9038 7.42431 14.7401 6.57094 13.1109 6.57094H8.06827V11.6912H13.1885V11.7688ZM13.8867 23.3281C15.6711 23.3281 16.9899 22.242 16.9899 20.3025C16.9899 18.2079 15.5935 17.2769 13.8867 17.2769H8.14585V23.4057H13.8867V23.3281Z" fill="white"/>
<path id="Vector_2" d="M26.4546 0.131836H34.135V30H26.4546V0.131836Z" fill="white"/>
<path id="Vector_3" d="M35.6865 19.3716C35.6865 12.6222 40.031 8.12256 46.7804 8.12256C53.5298 8.12256 57.7967 12.6997 57.7967 19.3716C57.7967 26.121 53.5298 30.6206 46.7804 30.6206C40.031 30.6206 35.6865 26.121 35.6865 19.3716ZM50.1163 19.3716C50.1163 15.6478 48.9526 13.3204 46.6252 13.3204C44.2979 13.3204 43.2117 15.6478 43.2117 19.3716C43.2117 23.0954 44.2979 25.5004 46.6252 25.5004C48.9526 25.4228 50.1163 23.0954 50.1163 19.3716Z" fill="white"/>
<path id="Vector_4" d="M58.6499 19.3716C58.6499 12.6222 62.9943 8.12256 69.7438 8.12256C76.4932 8.12256 80.6825 12.6222 80.6825 19.3716C80.6825 26.121 76.4156 30.6206 69.6662 30.6206C62.9944 30.6206 58.6499 26.121 58.6499 19.3716ZM73.0797 19.3716C73.0797 15.6478 71.916 13.3204 69.5886 13.3204C67.2612 13.3204 66.1751 15.6478 66.1751 19.3716C66.1751 23.0954 67.2612 25.5004 69.5886 25.5004C71.916 25.4228 73.0797 23.0954 73.0797 19.3716Z" fill="white"/>
<path id="Vector_5" d="M82.2344 8.66556H89.3717V11.8463H89.5268C90.9233 9.36377 92.8628 8.04492 95.9659 8.04492C98.6812 8.04492 100.698 9.36377 101.707 11.6912H101.862C103.569 8.8983 105.819 8.04492 108.456 8.04492C113.421 8.04492 115.516 11.6912 115.516 16.5787V29.9223H108.068V17.8975C108.068 15.7253 107.37 14.3289 105.508 14.3289C103.646 14.3289 102.715 16.0356 102.715 18.363V29.9223H95.2677V17.8975C95.2677 15.7253 94.5695 14.3289 92.7076 14.3289C90.8457 14.3289 89.9147 16.0356 89.9147 18.363V29.9223H82.2344V8.66556Z" fill="white"/>
<path id="Vector_6" d="M124.903 27.1295H124.825V29.9224H117.688V0.131836H125.136V10.8378H125.291C126.687 8.9759 128.627 7.96737 131.342 7.96737C136.695 7.96737 139.798 12.7773 139.798 19.2164C139.798 26.4313 136.462 30.6206 130.877 30.6206C128.549 30.6206 126.144 29.5345 124.903 27.1295ZM132.118 19.1388C132.118 15.7253 130.876 13.4755 128.627 13.4755C126.299 13.4755 124.903 15.7253 124.903 19.1388C124.903 22.5523 126.377 24.8021 128.627 24.8021C130.876 24.8021 132.118 22.6299 132.118 19.1388Z" fill="white"/>
<path id="Vector_7" d="M140.652 19.294C140.652 12.6221 145.074 8.04492 151.435 8.04492C154.616 8.04492 157.021 9.05346 158.883 10.8378C161.366 13.2427 162.452 16.9666 162.374 21.311H148.099C148.41 23.9487 149.651 25.3452 151.901 25.3452C153.22 25.3452 154.383 24.7245 154.849 23.3281H162.064C160.823 28.2156 157.021 30.6206 151.668 30.6206C145.074 30.543 140.652 26.0434 140.652 19.294ZM148.099 17.0441H154.927C154.771 14.484 153.375 13.1652 151.591 13.1652C149.496 13.0876 148.332 14.5616 148.099 17.0441Z" fill="white"/>
<path id="Vector_8" d="M170.83 12.3119H170.985C172.537 9.36389 174.554 8.2002 177.114 8.2002C177.735 8.2002 178.123 8.27777 178.355 8.43293V14.9496H178.2C173.778 14.1738 171.218 16.2685 171.218 21.0784V30H163.693V8.66567H170.83V12.3119Z" fill="white"/>
<path id="Vector_9" d="M179.131 29.9999H186.346C186.656 30.9308 187.587 31.7842 189.372 31.7842C191.777 31.7842 192.63 30.3102 192.63 28.0604V26.5088H192.475C191.311 27.9052 189.682 28.9138 187.354 28.9138C182.777 28.9138 178.743 25.5003 178.743 18.8284C178.743 12.6996 182.002 7.96729 186.967 7.96729C189.837 7.96729 191.544 9.13098 192.707 10.9153H192.863V8.58792H200V27.0518C200 30.4653 198.836 33.103 197.052 34.6546C195.19 36.2838 192.552 36.982 189.527 36.982C183.786 37.0596 179.829 34.7322 179.131 29.9999ZM192.94 18.5181C192.94 15.8804 191.699 13.7082 189.527 13.7082C187.432 13.7082 186.113 15.5701 186.113 18.5181C186.113 21.3885 187.432 23.4056 189.527 23.4056C191.621 23.4056 192.94 21.311 192.94 18.5181Z" fill="white"/>
</g>
</svg>
