<svg width="200" height="33" viewBox="0 0 200 33" fill="none" xmlns="http://www.w3.org/2000/svg">
<g id="quartzlogo" clip-path="url(#clip0_2749_29330)">
<path id="Vector" fill-rule="evenodd" clip-rule="evenodd" d="M199.973 7.01465L183.894 26.2097H199.973V31.0871H177.563V25.9546L193.699 7.01465H178.683V2.2509H199.974V7.01465M167.102 2.20215V7.01465H158.134V31.0871H153.279V7.01465H144.314V2.20215H167.102ZM128.535 21.3046C130.204 20.4737 131.608 19.1941 132.59 17.6094C133.572 16.0247 134.093 14.1976 134.094 12.3334C134.094 7.0384 129.746 2.3084 124.331 2.20215H113.681V31.0871H118.538V22.3884H122.938L132.949 32.5721L136.324 29.2246L128.536 21.3046H128.535ZM123.98 17.6221H118.538V7.04465H123.98C126.94 7.04465 129.35 9.4159 129.35 12.3346C129.35 15.2534 126.94 17.6221 123.98 17.6221ZM92.1415 2.20215H86.3115L75.2265 31.0871H80.3152L82.3927 25.4596H96.064L98.1389 31.0871H103.229L92.1415 2.20215ZM84.2415 20.9571L89.2315 7.91965L94.2127 20.9571H84.2415ZM65.8252 2.20215V20.4759C65.8252 26.6709 60.8127 31.7096 54.644 31.7096C48.4765 31.7096 43.4577 26.6696 43.4577 20.4759V2.20215H48.3089V20.4759C48.2027 24.0434 51.0914 26.9446 54.6464 26.9446C58.1927 26.9446 61.0815 24.0434 61.0115 20.4759V2.20215H65.8252ZM28.0927 25.5509C30.0006 22.9539 31.0273 19.8146 31.0227 16.5921C31.0227 8.2484 24.2539 1.45215 15.9452 1.45215C7.62894 1.45215 0.867676 8.2484 0.867676 16.5921C0.867676 24.9434 7.62894 31.7321 15.9452 31.7321C19.2127 31.7321 22.244 30.6846 24.7165 28.8984L28.4965 32.6921L31.8515 29.3272L28.0927 25.5509ZM24.6815 22.1259L19.1102 16.5321L15.759 19.9034L21.3015 25.4659C19.689 26.4505 17.8358 26.9704 15.9465 26.9684C10.2452 26.9684 5.61148 22.3171 5.61148 16.5934C5.61148 10.8759 10.2452 6.2184 15.9465 6.2184C21.6377 6.2184 26.2777 10.8746 26.2777 16.5934C26.2792 18.5518 25.7257 20.4705 24.6815 22.1271V22.1259Z" fill="white"/>
</g>
<defs>
<clipPath id="clip0_2749_29330">
<rect width="200" height="32.5" fill="white" transform="translate(0 0.345703)"/>
</clipPath>
</defs>
</svg>
